<svg xmlns="http://www.w3.org/2000/svg" width="32" height="32" viewBox="0 0 32 32"><g fill="#333"><path d="M20 0c-6.627 0-12 5.373-12 12 0 2.026.507 3.933 1.395 5.607l-8.344 8.342.007.007c-.652.641-1.058 1.529-1.058 2.515 0 1.949 1.58 3.529 3.529 3.529.985 0 1.874-.406 2.515-1.058l-.002-.002 8.341-8.34c1.676.891 3.586 1.4 5.617 1.4 6.627 0 12-5.373 12-12s-5.373-12-12-12zm-15.205 29.692c-.322.333-.768.543-1.266.543-.975 0-1.765-.79-1.765-1.765 0-.498.21-.943.543-1.266l-.009-.008 8.066-8.066c.705.951 1.545 1.791 2.494 2.498l-8.063 8.064zm15.205-7.692c-5.522 0-10-4.478-10-10s4.478-10 10-10 10 4.478 10 10-4.478 10-10 10zM20 5c-3.866 0-7 3.134-7 7 0 .276.224.5.5.5s.5-.224.5-.5c0-3.313 2.687-6 6-6 .276 0 .5-.224.5-.5s-.224-.5-.5-.5z"/></g></svg>