<svg xmlns="http://www.w3.org/2000/svg" width="32" height="31.961" viewBox="0 0 32 31.961"><g fill="#333"><path d="M29.5 20.961h-2.691c-.044-.239-.101-.473-.16-.706l4.798-2.399c.494-.247.694-.848.447-1.342s-.846-.692-1.342-.447l-4.577 2.288c-1.747-3.768-5.556-6.394-9.976-6.394-5.382 0-9.865 3.888-10.809 9h-2.69c-1.378 0-2.5 1.121-2.5 2.5 0 .49.18.963.505 1.329l3.495 3.932v.739c0 1.379 1.122 2.5 2.5 2.5h19c1.378 0 2.5-1.121 2.5-2.5v-.739l3.495-3.932c.325-.366.505-.839.505-1.329 0-1.379-1.122-2.5-2.5-2.5zm-3.702 0h-.562l.499-.25.063.25zm-9.798-8c4.029 0 7.5 2.4 9.083 5.841l-.891.445c-1.415-3.115-4.546-5.286-8.191-5.286-4.282 0-7.859 2.993-8.77 7h-1.029c.929-4.559 4.969-8 9.798-8zm4.576 8c-.774-1.763-2.531-3-4.576-3s-3.802 1.237-4.576 3h-1.074c.826-2.326 3.043-4 5.65-4 2.466 0 4.587 1.496 5.509 3.627l-.745.373h-.188zm-4.576-1c-.883 0-1.67.391-2.22 1h-1.224c.694-1.189 1.97-2 3.444-2s2.75.811 3.444 2h-1.224c-.55-.609-1.337-1-2.22-1zm0-4c-3.165 0-5.842 2.112-6.705 5h-1.032c.892-3.444 4.017-6 7.737-6 3.247 0 6.043 1.948 7.295 4.734l-.893.446c-1.087-2.457-3.546-4.18-6.402-4.18zm10 12v1.5c0 .276-.224.5-.5.5h-19c-.276 0-.5-.224-.5-.5v-1.5l-4-4.5c0-.276.224-.5.5-.5h27c.276 0 .5.224.5.5l-4 4.5zM7.977 11.673l.008.018h.002c.084.16.25.271.443.271.277 0 .502-.226.502-.503l-.018-.125v-.02c-.375-.882-.019-1.85.419-2.892.473-1.126.98-2.376.422-3.647-.071-.184-.248-.314-.456-.314-.271 0-.49.22-.49.49l.032.169.001.006.003.009.005.011c.404.909.013 1.841-.428 2.893-.466 1.109-.982 2.339-.462 3.592l.017.042zM20.155 11.527l.008.018h.002c.084.16.25.271.443.271.277 0 .502-.226.502-.503l-.018-.125v-.02c-.375-.882-.019-1.85.419-2.892.473-1.126.98-2.376.422-3.647-.071-.184-.248-.313-.456-.313-.271 0-.49.22-.49.49l.032.169.001.006.003.009.004.012c.404.909.013 1.841-.428 2.893-.466 1.109-.982 2.339-.462 3.592l.018.04zM15.019 7.212l.008.018h.002c.084.16.25.271.443.271.277 0 .502-.226.502-.503l-.018-.125v-.02c-.375-.882-.019-1.85.419-2.892.473-1.126.98-2.376.422-3.647-.071-.184-.248-.314-.456-.314-.271 0-.49.22-.49.49l.032.169.001.006.003.009.004.012c.404.909.013 1.841-.428 2.893-.466 1.109-.982 2.339-.462 3.592l.018.041z"/></g></svg>