<svg xmlns="http://www.w3.org/2000/svg" width="61" height="61" viewBox="0 0 61 61"><g fill="#010101"><path d="M25.5 58h-18.957c-.983-.001-1.859-.394-2.505-1.038-.643-.646-1.037-1.523-1.038-2.505v-46.957c0-.829-.672-1.5-1.5-1.5s-1.5.671-1.5 1.5v46.957c.001 3.614 2.929 6.542 6.543 6.543h18.957c.828 0 1.5-.671 1.5-1.5s-.672-1.5-1.5-1.5zM7.5 9h40c.828 0 1.5-.671 1.5-1.5s-.672-1.5-1.5-1.5h-40c-.828 0-1.5.671-1.5 1.5s.672 1.5 1.5 1.5"/><path d="M49.5 0h-42c-4.143.001-7.499 3.357-7.5 7.5.001 4.143 3.357 7.499 7.5 7.5h40.5v6.5c0 .829.672 1.5 1.5 1.5s1.5-.671 1.5-1.5v-8c0-.395-.16-.781-.439-1.061s-.666-.439-1.061-.439h-42c-1.247-.001-2.362-.501-3.182-1.318-.817-.819-1.317-1.935-1.318-3.182.001-1.247.501-2.363 1.318-3.182.82-.817 1.935-1.317 3.182-1.318h42c.828 0 1.5-.671 1.5-1.5s-.672-1.5-1.5-1.5zM45 50.5v-14c0-.829-.672-1.5-1.5-1.5s-1.5.671-1.5 1.5v14c0 .829.672 1.5 1.5 1.5s1.5-.671 1.5-1.5"/><path d="M36.439 45.561l6 6c.586.586 1.535.586 2.121 0l6-6c.586-.585.586-1.535 0-2.121s-1.535-.586-2.121 0l-4.939 4.939-4.939-4.939c-.586-.586-1.535-.586-2.121 0s-.586 1.535-.001 2.121zM59.5 43.5h-1.5c-.001 4.009-1.621 7.625-4.247 10.253-2.629 2.626-6.244 4.246-10.253 4.247-4.009-.001-7.624-1.621-10.253-4.247-2.626-2.628-4.246-6.244-4.247-10.253.001-4.009 1.621-7.625 4.247-10.253 2.629-2.626 6.244-4.247 10.253-4.247s7.624 1.621 10.253 4.247c2.626 2.628 4.246 6.244 4.247 10.253h3c-.001-9.666-7.835-17.499-17.5-17.5-9.665.001-17.499 7.834-17.5 17.5.001 9.666 7.835 17.499 17.5 17.5 9.665-.001 17.499-7.834 17.5-17.5h-1.5z"/></g></svg>