<svg xmlns="http://www.w3.org/2000/svg" width="63.001" height="42.187" viewBox="0 0 63.001 42.187"><path fill="#333" d="M2.58 7.792c-1.642 1.644-2.58 3.81-2.58 5.945 0 1.801.668 3.459 1.877 4.67l4.904 4.867.038.047.026.02.002-.002 10.408 10.331c.473.476 1.062.821 1.705 1.013l8.508 2.349c.023.003.692.156 1.031.156 1.933 0 3.5-1.569 3.5-3.505 0-.385-.184-1.13-.188-1.157l-2.229-8.478c-.191-.645-.539-1.23-1.016-1.705l-15.38-15.264c-2.78-2.776-7.436-2.463-10.606.713zm21.216 13.38c-.903.082-1.788.336-2.628.719l-9.453-9.455c1.826-.578 3.736-.281 5.004.986l.021.025.013-.014 7.789 7.729c-.249-.001-.493-.013-.746.01zm-3.54 1.221c-.613.373-1.204.797-1.729 1.322-.611.611-1.089 1.312-1.492 2.043l-9.531-9.531c.332-.748.805-1.465 1.438-2.098.539-.541 1.143-.959 1.771-1.281l9.543 9.545zm-3.694 4.307c-.373.926-.586 1.896-.599 2.869l-7.762-7.703c-1.15-1.18-1.481-2.896-1.062-4.588l9.423 9.422zm13.311 6.319c.025.109.111.448.127.679-.009.822-.678 1.489-1.5 1.489-.167-.012-.456-.079-.562-.102l-3.814-1.053c-.031-1.143.414-2.373 1.383-3.34.981-.982 2.235-1.444 3.391-1.394l.975 3.721zm-1.236-4.706c-1.341.023-2.737.57-3.837 1.672-1.044 1.042-1.646 2.405-1.699 3.766l-3.607-.996c-.24-.072-.477-.215-.685-.391-1.436-2.006-1.012-5.092 1.133-7.234 2.267-2.268 5.586-2.617 7.568-.871.061.115.119.232.157.359l.97 3.695zm-16.865-19.818l1.697 1.684c-.226 0-.443-.027-.674-.006-1.935.176-3.806 1.078-5.269 2.543-1.63 1.629-2.565 3.789-2.571 5.928l-1.67-1.656c-.826-.829-1.285-1.986-1.285-3.251 0-1.609.728-3.262 1.995-4.533 1.192-1.194 2.671-1.905 4.168-2.006 1.398-.094 2.679.367 3.609 1.297z"/><g fill="#333"><path d="M62.177 9.261l-8.437-8.437c-.528-.528-1.244-.824-1.989-.824h-29.532c-2.326 0-4.219 1.892-4.219 4.219v7.637l2.812 2.791v-10.428c0-.777.629-1.406 1.406-1.406h28.126v5.625h-.002c0 2.33 1.89 4.219 4.219 4.219h5.628v25.312c0 .777-.629 1.406-1.406 1.406h-36.564c-.777 0-1.406-.629-1.406-1.406v-2.775l-1.852-.511c-.339-.101-.661-.247-.961-.43v3.716c0 2.326 1.893 4.219 4.219 4.219h36.563c2.326 0 4.219-1.893 4.219-4.219v-26.719c0-.746-.297-1.461-.824-1.989zm-6.21 1.989h-1.406c-1.549 0-2.812-1.262-2.812-2.812h.002v-5.626l8.438 8.438h-4.222zM39.798 9.844h7.031c.387 0 .703-.314.703-.703s-.316-.703-.703-.703h-7.031c-.39 0-.703.314-.703.703s.313.703.703.703zM39.798 14.062h7.031c.387 0 .703-.314.703-.703 0-.389-.316-.703-.703-.703h-7.031c-.39 0-.703.314-.703.703 0 .389.313.703.703.703zM39.798 18.281h16.875c.387 0 .703-.314.703-.703s-.316-.703-.703-.703h-16.875c-.39 0-.703.314-.703.703s.313.703.703.703zM57.376 26.016c0-.39-.316-.703-.703-.703h-26.756l.37 1.406h26.387c.386 0 .702-.316.702-.703zM57.376 30.235c0-.39-.316-.703-.703-.703h-25.647l.37 1.406h25.277c.387 0 .703-.316.703-.703zM57.376 34.454c0-.39-.316-.703-.703-.703h-24.68c-.01.502-.128.976-.328 1.405h25.007c.388 0 .704-.315.704-.702zM57.376 21.796c0-.389-.316-.703-.703-.703h-29.363l1.259 1.249.139.157h27.965c.387.001.703-.314.703-.703zM34.876 18.281c.777 0 1.406-.629 1.406-1.406v-8.437c0-.777-.629-1.406-1.406-1.406h-9.845c-.777 0-1.406.629-1.406 1.406v8.437c0 .328.117.626.305.865l.247.245c.237.183.531.296.854.296h9.845zm-8.438-8.437h7.033v5.625h-7.033v-5.625z"/></g></svg>