<svg xmlns="http://www.w3.org/2000/svg" width="32" height="32" viewBox="0 0 32 32"><g fill="#333332"><path d="M29.333 3h-4.333v-2c0-.553-.448-1-1-1s-1 .447-1 1v2h-6v-2c0-.553-.448-1-1-1s-1 .447-1 1v2h-6v-2c0-.553-.448-1-1-1s-1 .447-1 1v2h-4.333c-1.473 0-2.667 1.193-2.667 2.666v23.667c0 1.473 1.194 2.667 2.667 2.667h26.667c1.472 0 2.666-1.194 2.666-2.667v-23.667c0-1.473-1.194-2.666-2.667-2.666zm.667 26.333c0 .368-.299.667-.667.667h-26.666c-.368 0-.667-.299-.667-.667v-23.667c0-.367.299-.666.667-.666h4.333v2c0 .553.448 1 1 1s1-.447 1-1v-2h6v2c0 .553.448 1 1 1s1-.447 1-1v-2h6v2c0 .553.448 1 1 1s1-.447 1-1v-2h4.333c.368 0 .667.299.667.666v23.667zM7 12h4v3h-4zM7 17h4v3h-4zM7 22h4v3h-4zM14 22h4v3h-4zM14 17h4v3h-4zM14 12h4v3h-4zM21 22h4v3h-4zM21 17h4v3h-4zM21 12h4v3h-4z"/></g></svg>