<svg xmlns="http://www.w3.org/2000/svg" width="32.001" height="32.001" viewBox="0 0 32.001 32.001"><path fill="#404040" d="M31.709 25.708l-9.708-9.708 9.708-9.708c.104-.104.18-.227.229-.356.134-.355.058-.771-.229-1.058l-4.586-4.586c-.286-.286-.702-.361-1.057-.229-.131.049-.254.125-.357.229l-9.708 9.708-9.708-9.708c-.105-.104-.227-.18-.357-.228-.356-.133-.771-.057-1.057.229l-4.586 4.585c-.286.286-.361.702-.231 1.058.051.13.125.252.23.356l9.709 9.708-9.708 9.708c-.105.104-.18.228-.23.357-.132.354-.056.771.23 1.057l4.586 4.586c.286.286.702.361 1.057.229.131-.05.252-.125.357-.229l9.708-9.708 9.708 9.708c.104.104.227.18.357.229.355.133.771.057 1.057-.229l4.586-4.586c.286-.286.362-.702.229-1.057-.049-.129-.126-.253-.229-.357"/></svg>