<svg xmlns="http://www.w3.org/2000/svg" width="28" height="32" viewBox="0 0 28 32"><path fill="#404040" d="M21.22 12h-4.228l-2.992 4.407-2.992-4.407h-4.228l5.068 7.577-5.718 8.423h8.195v-2.862h-1.892l1.567-2.343 3.481 5.205h4.389l-5.718-8.423 5.068-7.577zm5.012-5.768l-4.465-4.465c-.971-.972-2.892-1.767-4.267-1.767h-15c-1.375 0-2.5 1.125-2.5 2.5v27c0 1.375 1.125 2.5 2.5 2.5h23c1.375 0 2.5-1.125 2.5-2.5v-19c0-1.375-.796-3.296-1.768-4.268m-1.414 1.414c.098.098.195.218.29.354h-5.108v-5.108c.136.096.256.192.354.29l4.464 4.464zm1.182 21.854c0 .271-.229.5-.5.5h-23c-.271 0-.5-.229-.5-.5v-27c0-.271.229-.5.5-.5h15c.151 0 .32.02.5.053v7.947h7.947c.034.18.053.349.053.5v19z"/></svg>