<svg xmlns="http://www.w3.org/2000/svg" width="4.189" height="4.989" viewBox="3.264 1.833 4.189 4.989" enable-background="new 3.264 1.833 4.189 4.989"><path fill="#231F20" d="M4.697 1.833c-.151 0-.274.123-.274.274 0 .151.123.274.274.274.151 0 .274-.123.274-.274 0-.151-.123-.274-.274-.274zm0 .438c-.091 0-.165-.074-.165-.165 0-.09.074-.165.165-.165.091 0 .165.074.165.165-.001.092-.074.165-.165.165zM5.757 2.422c0 .121.098.219.219.219s.219-.098.219-.219-.098-.219-.219-.219-.219.099-.219.219zm.219-.11c.061 0 .109.049.109.11s-.049.11-.109.11-.11-.049-.11-.11.05-.11.11-.11z"/><circle fill="#231F20" cx="5.309" cy="2.568" r=".11"/><circle fill="#231F20" cx="4.925" cy="2.669" r=".11"/><path d="M4.971 3.555c-.121 0-.219.098-.219.219s.098.22.219.22.219-.098.219-.22-.098-.219-.219-.219zm0 .329c-.061 0-.11-.049-.11-.11s.049-.109.11-.109.109.049.109.109-.048.11-.109.11zM6.296 3.437c0-.151-.123-.274-.274-.274-.151 0-.274.123-.274.274s.123.273.273.273c.152 0 .275-.122.275-.273zm-.439 0c0-.091.074-.165.164-.165.091 0 .165.074.165.165s-.074.164-.165.164c-.09 0-.164-.074-.164-.164zM6.101 4.426l-.268.325v.337l.156.034c.203 0 .367-.161.367-.358 0-.155-.106-.291-.255-.338z" fill="none"/><circle cx="4.971" cy="3.775" r=".11"/><circle cx="6.022" cy="3.437" r=".164"/><path d="M7.442 2.695l-.098-.063h-3.97l-.099.062.014.117 1.558 1.939v1.961l.062.099.047.012.068-.024.767-.608.042-.085v-.478l.156.015c.489 0 .886-.394.886-.877 0-.309-.169-.596-.434-.752l.987-1.2.014-.118zm-2.471 1.299c-.121 0-.219-.099-.219-.22s.098-.219.219-.219.219.098.219.219-.098.22-.219.22zm.32 1.201c-.061 0-.11-.049-.11-.11s.049-.109.11-.109c.06 0 .109.049.109.109 0 .061-.049.11-.109.11zm.219-.708c-.061 0-.11-.049-.11-.11s.05-.109.11-.109.11.049.11.109-.049.11-.11.11zm.238-1.05c0-.151.123-.274.274-.274.151 0 .274.123.274.274s-.123.273-.275.273c-.15 0-.273-.122-.273-.273zm.241 1.686l-.156-.034v-.338l.268-.326c.149.048.255.184.255.34 0 .197-.164.358-.367.358z"/></svg>