<svg xmlns="http://www.w3.org/2000/svg" width="53" height="55" viewBox="0 0 53 55"><g fill="#010101"><path d="M43.5 53.5v-1.5h-36.5v-49h35v50.5h1.5v-1.5 1.5h1.5v-52c0-.395-.16-.781-.439-1.061s-.666-.439-1.061-.439h-38c-.395 0-.781.16-1.061.439s-.439.666-.439 1.061v52c0 .395.16.781.439 1.061s.666.439 1.061.439h38c.395 0 .781-.16 1.061-.439s.439-.666.439-1.061h-1.5zM33.5 23.5v-1.5h-14.5v-9h13v10.5h1.5v-1.5 1.5h1.5v-12c0-.395-.16-.781-.439-1.061s-.666-.439-1.061-.439h-16c-.395 0-.781.16-1.061.439s-.439.666-.439 1.061v12c0 .395.16.781.439 1.061s.666.439 1.061.439h16c.395 0 .781-.16 1.061-.439s.439-.666.439-1.061h-1.5zM1.5 49h8c.828 0 1.5-.672 1.5-1.5s-.672-1.5-1.5-1.5h-8c-.828 0-1.5.672-1.5 1.5s.672 1.5 1.5 1.5M1.5 41h8c.828 0 1.5-.672 1.5-1.5s-.672-1.5-1.5-1.5h-8c-.828 0-1.5.672-1.5 1.5s.672 1.5 1.5 1.5M1.5 33h8c.828 0 1.5-.672 1.5-1.5s-.672-1.5-1.5-1.5h-8c-.828 0-1.5.672-1.5 1.5s.672 1.5 1.5 1.5M1.5 25h8c.828 0 1.5-.672 1.5-1.5s-.672-1.5-1.5-1.5h-8c-.828 0-1.5.672-1.5 1.5s.672 1.5 1.5 1.5M1.5 17h8c.828 0 1.5-.672 1.5-1.5s-.672-1.5-1.5-1.5h-8c-.828 0-1.5.672-1.5 1.5s.672 1.5 1.5 1.5M1.5 9h8c.828 0 1.5-.672 1.5-1.5s-.672-1.5-1.5-1.5h-8c-.828 0-1.5.672-1.5 1.5s.672 1.5 1.5 1.5"/><path d="M51.5 15.5v-1.5h-6.5v-7h5v8.5h1.5v-1.5 1.5h1.5v-10c0-.395-.16-.781-.439-1.061s-.666-.439-1.061-.439h-8c-.395 0-.781.16-1.061.439s-.439.666-.439 1.061v10c0 .395.16.781.439 1.061s.666.439 1.061.439h8c.395 0 .781-.16 1.061-.439s.439-.666.439-1.061h-1.5zM51.5 25.5v-1.5h-6.5v-7h5v8.5h1.5v-1.5 1.5h1.5v-10c0-.395-.16-.781-.439-1.061s-.666-.439-1.061-.439h-8c-.395 0-.781.16-1.061.439s-.439.666-.439 1.061v10c0 .395.16.781.439 1.061s.666.439 1.061.439h8c.395 0 .781-.16 1.061-.439s.439-.666.439-1.061h-1.5zM51.5 35.5v-1.5h-6.5v-7h5v8.5h1.5v-1.5 1.5h1.5v-10c0-.395-.16-.781-.439-1.061s-.666-.439-1.061-.439h-8c-.395 0-.781.16-1.061.439s-.439.666-.439 1.061v10c0 .395.16.781.439 1.061s.666.439 1.061.439h8c.395 0 .781-.16 1.061-.439s.439-.666.439-1.061h-1.5zM51.5 45.5v-1.5h-6.5v-7h5v8.5h1.5v-1.5 1.5h1.5v-10c0-.395-.16-.781-.439-1.061s-.666-.439-1.061-.439h-8c-.395 0-.781.16-1.061.439s-.439.666-.439 1.061v10c0 .395.16.781.439 1.061s.666.439 1.061.439h8c.395 0 .781-.16 1.061-.439s.439-.666.439-1.061h-1.5z"/></g></svg>