<svg xmlns="http://www.w3.org/2000/svg" width="28" height="32" viewBox="0 0 28 32"><path fill="#404040" d="M24.313 18.421c-.426-.42-1.372-.643-2.812-.662-.974-.011-2.147.075-3.38.248-.552-.318-1.122-.665-1.568-1.083-1.202-1.122-2.205-2.68-2.83-4.394l.108-.444s.677-3.846.498-5.146c-.025-.179-.04-.23-.088-.369l-.059-.151c-.184-.425-.545-.875-1.111-.85l-.332-.012h-.009c-.631 0-1.146.323-1.281.806-.411 1.514.013 3.778.781 6.711l-.197.478c-.55 1.341-1.238 2.689-1.846 3.881l-.079.154c-.639 1.251-1.22 2.313-1.745 3.213l-.543.287c-.04.021-.97.514-1.188.646-1.852 1.105-3.079 2.36-3.282 3.356-.065.318-.017.726.313.913l.525.265c.228.113.468.172.714.172 1.319 0 2.85-1.643 4.959-5.324 2.435-.793 5.208-1.452 7.638-1.814 1.852 1.043 4.129 1.767 5.567 1.767.255 0 .475-.024.654-.072.276-.073.508-.229.65-.443.279-.421.335-.998.26-1.591-.025-.176-.165-.393-.317-.542m-19.699 7.018c.24-.658 1.192-1.959 2.6-3.111.088-.072.306-.276.506-.466-1.472 2.348-2.458 3.283-3.106 3.577m8.337-19.199c.424 0 .665 1.068.685 2.069.02 1.002-.214 1.705-.505 2.226-.241-.771-.357-1.984-.357-2.778 0 0-.017-1.517.177-1.517m-2.487 13.682c.295-.529.603-1.086.917-1.677.765-1.447 1.249-2.58 1.609-3.511.716 1.303 1.608 2.41 2.656 3.297l.415.333c-2.133.421-3.975.934-5.597 1.558m13.439-.12c-.13.081-.502.128-.741.128-.772 0-1.727-.353-3.066-.927.515-.038.986-.057 1.409-.057.774 0 1.004-.003 1.761.189.757.194.767.585.637.667m2.329-13.57l-4.465-4.465c-.971-.972-2.892-1.767-4.267-1.767h-15c-1.375 0-2.5 1.125-2.5 2.5v27c0 1.375 1.125 2.5 2.5 2.5h23c1.375 0 2.5-1.125 2.5-2.5v-19c0-1.375-.796-3.296-1.768-4.268m-1.414 1.414c.098.098.195.218.29.354h-5.108v-5.108c.136.096.256.192.354.29l4.464 4.464zm1.182 21.854c0 .271-.229.5-.5.5h-23c-.271 0-.5-.229-.5-.5v-27c0-.271.229-.5.5-.5h15c.151 0 .32.02.5.053v7.947h7.947c.034.18.053.349.053.5v19z"/></svg>