<svg xmlns="http://www.w3.org/2000/svg" width="28" height="32" viewBox="0 0 28 32"><path fill="#404040" d="M17.993 14.872h1.382l-1.594 7.067-2.073-9.938h-3.33l-2.41 9.938-1.806-9.938h-3.48l3.533 15.996h3.401l2.384-9.458 2.133 9.459h3.137l4.05-15.996h-5.327v2.87zm8.239-8.64l-4.464-4.465c-.972-.972-2.893-1.767-4.268-1.767h-15c-1.375 0-2.5 1.125-2.5 2.5v27c0 1.375 1.125 2.5 2.5 2.5h23c1.375 0 2.5-1.125 2.5-2.5v-19c0-1.375-.796-3.296-1.768-4.268m-1.414 1.414c.098.098.196.218.289.354h-5.107v-5.108c.136.096.256.192.354.29l4.464 4.464zm1.182 21.854c0 .271-.229.5-.5.5h-23c-.271 0-.5-.229-.5-.5v-27c0-.271.229-.5.5-.5h15c.15 0 .32.02.5.053v7.947h7.947c.033.18.053.349.053.5v19z"/></svg>