<svg xmlns="http://www.w3.org/2000/svg" width="67.667" height="83.282" viewBox="0 0 67.667 83.282"><path fill="#404040" d="M13.333 32.668h39.333v2.458h-39.333zM13.333 39.852h27.042v2.458h-27.042zM13.333 47.034h39.333v2.459h-39.333zM13.333 54.218h27.042v2.458h-27.042zM13.333 61.4h39.333v2.458h-39.333zM13.333 68.584h27.042v2.458h-27.042zM38.276 1.84c-1.013-1.012-3.012-1.84-4.443-1.84h-31.23c-1.431 0-2.603 1.172-2.603 2.603v78.077c0 1.431 1.172 2.603 2.603 2.603h62.461c1.431 0 2.603-1.172 2.603-2.603v-46.847c0-1.431-.827-3.431-1.84-4.442l-27.551-27.551zm24.185 76.237h-57.256v-72.872h28.561c.236.038.684.224.879.363l27.454 27.457c.141.192.325.64.365.879l-.003 44.173zm2.603-78.077h-15.615c-1.431 0-1.775.828-.763 1.84l17.141 17.14c1.013 1.012 1.84.668 1.84-.763v-15.614c0-1.431-1.172-2.603-2.603-2.603"/></svg>