<svg xmlns="http://www.w3.org/2000/svg" width="99.001" height="92.811" viewBox="0 0 99.001 92.811"><path fill-rule="evenodd" clip-rule="evenodd" fill="#333" d="M97.188 20.375l-18.562-18.563c-1.16-1.16-2.737-1.812-4.375-1.812h-64.97c-5.118 0-9.281 4.163-9.281 9.281v74.248c0 5.118 4.163 9.281 9.281 9.281h80.439c5.118 0 9.281-4.163 9.281-9.281v-58.779c0-1.641-.652-3.215-1.813-4.375zm-4.375 63.154c0 1.71-1.384 3.094-3.094 3.094h-80.438c-1.71 0-3.094-1.384-3.094-3.094v-74.248c0-1.71 1.384-3.094 3.094-3.094h61.876v12.375h-.006c0 5.127 4.157 9.281 9.281 9.281h12.381v55.686zm-9.287-58.779h-3.094c-3.408 0-6.187-2.776-6.187-6.188h.006v-12.374l18.562 18.562h-9.287z"/><path fill="#010101" d="M84.477 73.846h-2.627v2.63c0 1.394-1.131 2.524-2.526 2.524-1.394 0-2.522-1.132-2.522-2.524v-2.63h-2.629c-1.396 0-2.524-1.129-2.524-2.523s1.131-2.523 2.524-2.523h2.629v-2.629c0-1.394 1.13-2.524 2.522-2.524 1.396 0 2.526 1.129 2.526 2.524v2.627h2.627c1.396 0 2.524 1.131 2.524 2.524.001 1.395-1.128 2.524-2.524 2.524z"/><g fill="#1D1D1B"><path d="M17.553 80.596h44.091c2.342 0 4.24-1.897 4.24-4.239v-28.607c0-2.343-1.898-4.24-4.24-4.24h-6.333v8.434c2.495.745 4.319 3.058 4.319 5.792v4.607h-3.454v-4.607c0-1.43-1.164-2.592-2.592-2.592s-2.592 1.163-2.592 2.592v4.607h-3.453v-4.607c0-2.733 1.825-5.046 4.318-5.792v-8.224c-3.151 3.123-7.483 5.056-12.259 5.056-4.601 0-8.788-1.797-11.905-4.72v9.207c2.251.73 3.883 2.846 3.883 5.336 0 3.095-2.517 5.61-5.611 5.61s-5.611-2.516-5.611-5.61c0-2.491 1.633-4.606 3.884-5.336v-9.752h-6.687c-2.341 0-4.239 1.897-4.239 4.24v28.607c.001 2.34 1.899 4.238 4.241 4.238zM29.025 42.474c.384.364.787.711 1.208 1.035 2.592 2 5.838 3.193 9.366 3.193s6.774-1.192 9.367-3.193c.42-.324.823-.671 1.207-1.035.347-.331.678-.675.993-1.037 2.355-2.697 3.784-6.224 3.784-10.086 0-8.479-6.873-15.351-15.35-15.351s-15.35 6.873-15.35 15.351c0 3.862 1.429 7.389 3.785 10.086.312.362.643.707.99 1.037zM23.809 58.599c0 1.189.968 2.157 2.157 2.157s2.157-.968 2.157-2.157c0-.664-.307-1.25-.778-1.647-.375-.313-.852-.511-1.378-.511-.526 0-1.003.198-1.377.511-.475.397-.781.984-.781 1.647z"/></g></svg>