<svg xmlns="http://www.w3.org/2000/svg" width="86.125" height="79" viewBox="0 0 86.125 79"><g fill="#333"><circle cx="39.5" cy="17.251" r="3.625"/><circle cx="39.5" cy="60.75" r="3.625"/><circle cx="17.75" cy="39.001" r="3.625"/><circle cx="61.25" cy="39.001" r="3.625"/><path d="M21.559 51.815c-1.423 1.416-1.423 3.71 0 5.126 1.416 1.416 3.703 1.416 5.126 0 1.416-1.416 1.416-3.71 0-5.126-1.423-1.416-3.71-1.416-5.126 0zM21.559 21.06c-1.423 1.416-1.423 3.703-.007 5.126 1.423 1.416 3.71 1.416 5.133 0 1.416-1.423 1.416-3.71 0-5.126-1.423-1.423-3.71-1.423-5.126 0z"/><circle cx="54.877" cy="54.378" r="3.625"/><path d="M57.412 20.968c-.439-.438-1.146-.475-1.643-.078l-18.818 15.534c-.694.7-1.076 1.621-1.076 2.605 0 .955.368 1.854 1.048 2.534.68.673 1.586 1.048 2.562 1.055.906-.007 1.849-.34 2.535-1.005l6.697-8.064 8.794-10.945c.383-.489.341-1.197-.099-1.636z"/></g><circle stroke="#000" stroke-width="6" stroke-miterlimit="10" cx="39.5" cy="39.5" r="36.5" fill="none"/><circle cx="81.125" cy="39" r="5"/></svg>